<svg width="52" height="52" viewBox="0 0 52 52" fill="none" xmlns="http://www.w3.org/2000/svg">
  <path d="M24.9834 41.535V41.0781L24.5283 41.0371C16.1375 40.28 9.5567 33.2345 9.5567 24.6784V21.255C9.5567 20.6862 10.0045 20.2384 10.5734 20.2384C11.1422 20.2384 11.59 20.6862 11.59 21.255V24.7C11.59 32.6462 18.0539 39.11 26 39.11C33.9462 39.11 40.41 32.6462 40.41 24.7V21.2767C40.41 20.7078 40.8578 20.26 41.4267 20.26C41.9695 20.26 42.4256 20.705 42.4434 21.2623V24.6784C42.4434 33.2351 35.8406 40.3011 27.4729 41.037L27.0167 41.0771V41.535V46.15C27.0167 46.7189 26.5689 47.1667 26 47.1667C25.4312 47.1667 24.9834 46.7189 24.9834 46.15V41.535Z" fill="#667085" stroke="#667085" />
  <path d="M26 4.33331C20.7133 4.33331 16.4233 8.62331 16.4233 13.91V25.0033C16.4233 30.29 20.7133 34.58 26 34.58C31.2867 34.58 35.5767 30.29 35.5767 25.0033V13.91C35.5767 8.62331 31.2867 4.33331 26 4.33331ZM28.8383 19.3916C28.6867 19.955 28.1883 20.3233 27.625 20.3233C27.5167 20.3233 27.4083 20.3016 27.3 20.28C26.455 20.0416 25.5667 20.0416 24.7217 20.28C24.0283 20.475 23.3567 20.0633 23.1833 19.3916C22.9883 18.72 23.4 18.0266 24.0717 17.8533C25.35 17.5066 26.6933 17.5066 27.9717 17.8533C28.6217 18.0266 29.0117 18.72 28.8383 19.3916ZM29.9867 15.1883C29.7917 15.7083 29.315 16.0116 28.795 16.0116C28.6433 16.0116 28.5133 15.99 28.3617 15.9466C26.845 15.3833 25.155 15.3833 23.6383 15.9466C22.9883 16.185 22.2517 15.8383 22.0133 15.1883C21.775 14.5383 22.1217 13.8016 22.7717 13.585C24.8517 12.8266 27.1483 12.8266 29.2283 13.585C29.8783 13.8233 30.225 14.5383 29.9867 15.1883Z" fill="#667085" />
</svg>