<svg width="40" height="40" viewBox="0 0 40 40" fill="none" xmlns="http://www.w3.org/2000/svg">
<path d="M31.5609 12.2816L29.4758 14.3666L25.273 10.1638L27.3581 8.07878C27.9464 7.49045 28.7006 7.21051 29.4595 7.21051C30.2183 7.21051 30.9725 7.49045 31.5609 8.07878C32.724 9.24192 32.724 11.1184 31.5609 12.2816Z" fill="white" stroke="#8551DE"/>
<path d="M28.3302 16.2357L10.6381 33.9114C9.27973 35.2698 7.08664 35.2698 5.72823 33.9114C4.36982 32.553 4.36982 30.3599 5.72823 29.0015L23.4203 11.3258L28.3302 16.2357Z" fill="white"/>
<path d="M16.2845 6.08856L16.9556 3.81364C17.021 3.60088 16.9556 3.37175 16.8083 3.20808C16.661 3.04442 16.3991 2.97895 16.1863 3.04442L13.9114 3.71544L11.6365 3.04442C11.4237 2.97895 11.1946 3.04442 11.0309 3.19172C10.8673 3.35538 10.8182 3.58451 10.8836 3.79727L11.5383 6.08856L10.8673 8.36349C10.8018 8.57625 10.8673 8.80538 11.0146 8.96904C11.1782 9.13271 11.4074 9.18181 11.6201 9.11634L13.9114 8.46169L16.1863 9.13271C16.2518 9.14907 16.3009 9.16544 16.3664 9.16544C16.53 9.16544 16.6773 9.09998 16.8083 8.98541C16.9719 8.82175 17.021 8.59262 16.9556 8.37986L16.2845 6.08856Z" fill="white"/>
<path d="M9.73799 15.9084L10.409 13.6335C10.4745 13.4207 10.409 13.1916 10.2617 13.0279C10.0981 12.8642 9.86892 12.8151 9.65616 12.8806L7.36487 13.5353L5.08994 12.8642C4.87718 12.7988 4.64805 12.8642 4.48439 13.0115C4.32073 13.1752 4.27163 13.4043 4.33709 13.6171L4.99175 15.9084L4.32073 18.1833C4.25526 18.3961 4.32073 18.6252 4.46802 18.7889C4.63169 18.9525 4.86082 19.0016 5.07358 18.9362L7.3485 18.2651L9.62343 18.9362C9.67253 18.9525 9.73799 18.9525 9.80346 18.9525C9.96712 18.9525 10.1144 18.8871 10.2454 18.7725C10.409 18.6088 10.4581 18.3797 10.3926 18.1669L9.73799 15.9084Z" fill="white"/>
<path d="M34.2875 24.0916L34.9586 21.8166C35.024 21.6039 34.9586 21.3748 34.8113 21.2111C34.6476 21.0474 34.4185 20.9983 34.2057 21.0638L31.9308 21.7348L29.6559 21.0638C29.4431 20.9983 29.214 21.0638 29.0503 21.2111C28.8866 21.3748 28.8375 21.6039 28.903 21.8166L29.574 24.0916L28.903 26.3665C28.8375 26.5793 28.903 26.8084 29.0503 26.9721C29.214 27.1357 29.4431 27.1848 29.6559 27.1194L31.9308 26.4483L34.2057 27.1194C34.2548 27.1357 34.3203 27.1357 34.3857 27.1357C34.5494 27.1357 34.6967 27.0703 34.8276 26.9557C34.9913 26.792 35.0404 26.5629 34.9749 26.3501L34.2875 24.0916Z" fill="white"/>
</svg>
