<svg width="49" height="54" viewBox="0 0 49 54" fill="none" xmlns="http://www.w3.org/2000/svg">
  <path d="M48.5606 49.0158C48.5606 57.0721 0.663574 57.0721 0.663574 49.0158C0.663574 40.9595 19.5819 37.793 24.5921 37.793C29.6423 37.8331 48.5606 40.9595 48.5606 49.0158Z" fill="#0E2443" />
  <path d="M24.5921 41.9615C22.2674 41.9615 20.3435 40.0777 20.3435 37.7129V28.0533H28.8407V37.7129C28.8407 40.0777 26.9569 41.9615 24.5921 41.9615Z" fill="#07B8CD" />
  <path d="M28.8407 35.2278V31.5404H20.3435V35.2278C21.6662 35.7489 23.069 36.0695 24.5921 36.0695C26.1152 36.0695 27.518 35.789 28.8407 35.2278Z" fill="#07B8CD" />
  <path d="M24.5921 33.3841C18.3394 33.3841 13.2892 28.3339 13.2892 22.0812V13.103C13.2892 6.85035 18.3394 1.80012 24.5921 1.80012C30.8448 1.80012 35.895 6.85035 35.895 13.103V22.0812C35.895 28.3339 30.8448 33.3841 24.5921 33.3841Z" fill="#07B8CD" />
  <path d="M12.1668 23.8448C13.8713 23.8448 15.2531 22.463 15.2531 20.7585C15.2531 19.054 13.8713 17.6723 12.1668 17.6723C10.4623 17.6723 9.08057 19.054 9.08057 20.7585C9.08057 22.463 10.4623 23.8448 12.1668 23.8448Z" fill="#07B8CD" />
  <path d="M9.96237 20.9589C9.84213 20.9589 9.76196 20.8788 9.76196 20.7585C9.76196 19.4359 10.8442 18.3537 12.1668 18.3537C12.2871 18.3537 12.3672 18.4338 12.3672 18.5541C12.3672 18.6743 12.2871 18.7545 12.1668 18.7545C11.0446 18.7545 10.1628 19.6363 10.1628 20.7585C10.1628 20.8788 10.0425 20.9589 9.96237 20.9589Z" fill="#0E2443" />
  <path d="M37.0573 23.8448C38.7618 23.8448 40.1436 22.463 40.1436 20.7585C40.1436 19.054 38.7618 17.6723 37.0573 17.6723C35.3528 17.6723 33.9711 19.054 33.9711 20.7585C33.9711 22.463 35.3528 23.8448 37.0573 23.8448Z" fill="#07B8CD" />
  <path d="M39.2618 20.9589C39.1416 20.9589 39.0614 20.8788 39.0614 20.7585C39.0614 19.6363 38.1796 18.7545 37.0573 18.7545C36.9371 18.7545 36.8569 18.6743 36.8569 18.5541C36.8569 18.4338 36.9371 18.3537 37.0573 18.3537C38.38 18.3537 39.4622 19.4359 39.4622 20.7585C39.4622 20.8788 39.382 20.9589 39.2618 20.9589Z" fill="#0E2443" />
  <path d="M35.895 23.1233V26.2096C35.895 32.4622 30.8448 37.5125 24.5921 37.5125C18.3394 37.5125 13.2892 32.4622 13.2892 26.2096V23.1233H35.895Z" fill="#0E2443" />
  <path d="M24.5921 11.8605C26.516 11.8605 27.999 11.099 29.1213 9.25522C31.446 4.6058 34.7326 11.8605 35.895 11.8605C35.895 5.60783 30.8448 0.557602 24.5921 0.557602C18.3394 0.557602 13.2892 5.60783 13.2892 11.8605C14.4515 11.8605 17.7783 4.6058 20.0629 9.25522C21.1852 11.099 22.6682 11.8605 24.5921 11.8605Z" fill="#0E2443" />
  <path d="M31.005 25.2476H18.2191C18.2191 27.7327 20.143 29.7768 22.588 29.9371C23.8305 29.7367 24.6321 27.6124 24.6321 27.6124C24.6321 27.6124 25.4738 29.7768 26.6763 29.9371C29.0811 29.7367 31.005 27.7327 31.005 25.2476Z" fill="#07B8CD" />
</svg>